<svg xmlns="http://www.w3.org/2000/svg" width="1440" height="900"><path d="M919,400L778,585L954,526Z" fill="#333333" stroke="#333333" stroke-width="1.51"/><path d="M919,400L654,360L778,585Z" fill="#363736" stroke="#363736" stroke-width="1.51"/><path d="M778,585L864,787L954,526Z" fill="#2f2f2f" stroke="#2f2f2f" stroke-width="1.51"/><path d="M531,719L755,762L778,585Z" fill="#333333" stroke="#333333" stroke-width="1.51"/><path d="M755,762L864,787L778,585Z" fill="#2e2f2e" stroke="#2e2f2e" stroke-width="1.51"/><path d="M954,526L1179,303L919,400Z" fill="#343534" stroke="#343534" stroke-width="1.51"/><path d="M1145,757L1134,586L954,526Z" fill="#2a2b2a" stroke="#2a2b2a" stroke-width="1.51"/><path d="M919,400L933,182L654,360Z" fill="#404240" stroke="#404240" stroke-width="1.51"/><path d="M1179,303L933,182L919,400Z" fill="#3e3f3e" stroke="#3e3f3e" stroke-width="1.51"/><path d="M654,360L504,567L778,585Z" fill="#3b3c3b" stroke="#3b3c3b" stroke-width="1.51"/><path d="M654,360L518,297L504,567Z" fill="#454645" stroke="#454645" stroke-width="1.51"/><path d="M737,83L518,297L654,360Z" fill="#4d4f4d" stroke="#4d4f4d" stroke-width="1.51"/><path d="M1134,586L1179,303L954,526Z" fill="#2f302f" stroke="#2f302f" stroke-width="1.51"/><path d="M755,762L753,971L864,787Z" fill="#2b2b2b" stroke="#2b2b2b" stroke-width="1.51"/><path d="M504,567L531,719L778,585Z" fill="#393a39" stroke="#393a39" stroke-width="1.51"/><path d="M864,787L1145,757L954,526Z" fill="#2a2b2a" stroke="#2a2b2a" stroke-width="1.51"/><path d="M1134,586L1267,394L1179,303Z" fill="#2f302f" stroke="#2f302f" stroke-width="1.51"/><path d="M933,182L737,83L654,360Z" fill="#4b4b4a" stroke="#4b4b4a" stroke-width="1.51"/><path d="M965,-28L737,83L933,182Z" fill="#525452" stroke="#525452" stroke-width="1.51"/><path d="M1296,596L1267,394L1134,586Z" fill="#2a2b2a" stroke="#2a2b2a" stroke-width="1.51"/><path d="M1290,709L1296,596L1134,586Z" fill="#272727" stroke="#272727" stroke-width="1.51"/><path d="M926,1016L1187,896L1145,757Z" fill="#232323" stroke="#232323" stroke-width="1.51"/><path d="M554,915L753,971L755,762Z" fill="#2d2d2d" stroke="#2d2d2d" stroke-width="1.51"/><path d="M1187,896L1290,709L1145,757Z" fill="#232323" stroke="#232323" stroke-width="1.51"/><path d="M1145,757L1290,709L1134,586Z" fill="#272727" stroke="#272727" stroke-width="1.51"/><path d="M504,567L354,594L531,719Z" fill="#414241" stroke="#414241" stroke-width="1.51"/><path d="M531,719L554,915L755,762Z" fill="#333433" stroke="#333433" stroke-width="1.51"/><path d="M256,362L354,594L504,567Z" fill="#4a4c4a" stroke="#4a4c4a" stroke-width="1.51"/><path d="M1336,93L1156,94L1179,303Z" fill="#434443" stroke="#434443" stroke-width="1.51"/><path d="M1179,303L1156,94L933,182Z" fill="#444544" stroke="#444544" stroke-width="1.51"/><path d="M737,83L506,101L518,297Z" fill="#575957" stroke="#575957" stroke-width="1.51"/><path d="M518,297L256,362L504,567Z" fill="#4d4e4d" stroke="#4d4e4d" stroke-width="1.51"/><path d="M296,948L554,915L531,719Z" fill="#3a3b3a" stroke="#3a3b3a" stroke-width="1.51"/><path d="M1156,94L965,-28L933,182Z" fill="#4f504f" stroke="#4f504f" stroke-width="1.51"/><path d="M737,83L575,1L506,101Z" fill="#5e615e" stroke="#5e615e" stroke-width="1.51"/><path d="M926,1016L1145,757L864,787Z" fill="#262626" stroke="#262626" stroke-width="1.51"/><path d="M753,971L926,1016L864,787Z" fill="#272727" stroke="#272727" stroke-width="1.51"/><path d="M728,-58L575,1L737,83Z" fill="#5e605e" stroke="#5e605e" stroke-width="1.51"/><path d="M965,-28L728,-58L737,83Z" fill="#5a5c5a" stroke="#5a5c5a" stroke-width="1.51"/><path d="M353,-68L351,168L506,101Z" fill="#6b6d6b" stroke="#6b6d6b" stroke-width="1.51"/><path d="M506,101L351,168L518,297Z" fill="#5d5f5d" stroke="#5d5f5d" stroke-width="1.51"/><path d="M351,168L256,362L518,297Z" fill="#5a5c5a" stroke="#5a5c5a" stroke-width="1.51"/><path d="M354,594L257,697L531,719Z" fill="#454645" stroke="#454645" stroke-width="1.51"/><path d="M113,598L257,697L354,594Z" fill="#4e504e" stroke="#4e504e" stroke-width="1.51"/><path d="M1156,94L1115,-107L965,-28Z" fill="#555754" stroke="#555754" stroke-width="1.51"/><path d="M1267,394L1336,93L1179,303Z" fill="#3b3b3b" stroke="#3b3b3b" stroke-width="1.51"/><path d="M1471,405L1336,93L1267,394Z" fill="#353635" stroke="#353635" stroke-width="1.51"/><path d="M1471,405L1267,394L1296,596Z" fill="#2a2a2a" stroke="#2a2a2a" stroke-width="1.51"/><path d="M1480,562L1471,405L1296,596Z" fill="#272727" stroke="#272727" stroke-width="1.51"/><path d="M1480,562L1296,596L1491,728Z" fill="#232323" stroke="#232323" stroke-width="1.51"/><path d="M1491,728L1296,596L1290,709Z" fill="#232323" stroke="#232323" stroke-width="1.51"/><path d="M1346,-94L1115,-107L1156,94Z" fill="#545553" stroke="#545553" stroke-width="1.51"/><path d="M979,-310L660,-197L728,-58Z" fill="#6a6b68" stroke="#6a6b68" stroke-width="1.51"/><path d="M1187,896L1362,924L1290,709Z" fill="#202020" stroke="#202020" stroke-width="1.51"/><path d="M1268,1186L1362,924L1187,896Z" fill="#1b1b1b" stroke="#1b1b1b" stroke-width="1.51"/><path d="M1707,298L1575,104L1471,405Z" fill="#323332" stroke="#323332" stroke-width="1.51"/><path d="M1362,924L1491,728L1290,709Z" fill="#1f1f1f" stroke="#1f1f1f" stroke-width="1.51"/><path d="M926,1016L1107,1168L1187,896Z" fill="#1e1f1e" stroke="#1e1f1e" stroke-width="1.51"/><path d="M753,971L781,1193L926,1016Z" fill="#232323" stroke="#232323" stroke-width="1.51"/><path d="M496,1165L781,1193L753,971Z" fill="#262626" stroke="#262626" stroke-width="1.51"/><path d="M496,1165L753,971L554,915Z" fill="#2d2d2d" stroke="#2d2d2d" stroke-width="1.51"/><path d="M575,1L353,-68L506,101Z" fill="#6b6d6b" stroke="#6b6d6b" stroke-width="1.51"/><path d="M728,-58L660,-197L575,1Z" fill="#686967" stroke="#686967" stroke-width="1.51"/><path d="M979,-310L728,-58L965,-28Z" fill="#626462" stroke="#626462" stroke-width="1.51"/><path d="M257,697L296,948L531,719Z" fill="#424342" stroke="#424342" stroke-width="1.51"/><path d="M256,362L113,598L354,594Z" fill="#525452" stroke="#525452" stroke-width="1.51"/><path d="M257,697L145,784L296,948Z" fill="#494b49" stroke="#494b49" stroke-width="1.51"/><path d="M128,87L137,370L256,362Z" fill="#686a68" stroke="#686a68" stroke-width="1.51"/><path d="M128,87L256,362L351,168Z" fill="#696b69" stroke="#696b69" stroke-width="1.51"/><path d="M781,1193L930,1208L926,1016Z" fill="#1f201f" stroke="#1f201f" stroke-width="1.51"/><path d="M930,1208L1107,1168L926,1016Z" fill="#1d1e1d" stroke="#1d1e1d" stroke-width="1.51"/><path d="M1115,-107L1075,-212L965,-28Z" fill="#5d5f5c" stroke="#5d5f5c" stroke-width="1.51"/><path d="M1292,-254L1075,-212L1115,-107Z" fill="#61615f" stroke="#61615f" stroke-width="1.51"/><path d="M137,370L113,598L256,362Z" fill="#595b59" stroke="#595b59" stroke-width="1.51"/><path d="M541,-270L353,-68L575,1Z" fill="#747673" stroke="#747673" stroke-width="1.51"/><path d="M113,598L145,784L257,697Z" fill="#505250" stroke="#505250" stroke-width="1.51"/><path d="M296,948L496,1165L554,915Z" fill="#363736" stroke="#363736" stroke-width="1.51"/><path d="M781,1193L-141,1177L930,1208Z" fill="#2b2c2b" stroke="#2b2c2b" stroke-width="1.51"/><path d="M1336,93L1346,-94L1156,94Z" fill="#4d4e4c" stroke="#4d4e4c" stroke-width="1.51"/><path d="M1521,-44L1346,-94L1336,93Z" fill="#4d4e4c" stroke="#4d4e4c" stroke-width="1.51"/><path d="M1292,-254L979,-310L1075,-212Z" fill="#676866" stroke="#676866" stroke-width="1.51"/><path d="M1075,-212L979,-310L965,-28Z" fill="#646562" stroke="#646562" stroke-width="1.51"/><path d="M1107,1168L1268,1186L1187,896Z" fill="#1b1b1b" stroke="#1b1b1b" stroke-width="1.51"/><path d="M1362,924L1571,1002L1491,728Z" fill="#1a1a1a" stroke="#1a1a1a" stroke-width="1.51"/><path d="M930,1208L1268,1186L1107,1168Z" fill="#191a19" stroke="#191a19" stroke-width="1.51"/><path d="M660,-197L541,-270L575,1Z" fill="#717270" stroke="#717270" stroke-width="1.51"/><path d="M979,-310L541,-270L660,-197Z" fill="#71726f" stroke="#71726f" stroke-width="1.51"/><path d="M137,370L-64,525L113,598Z" fill="#5d5f5d" stroke="#5d5f5d" stroke-width="1.51"/><path d="M353,-68L128,87L351,168Z" fill="#737673" stroke="#737673" stroke-width="1.51"/><path d="M93,-104L128,87L353,-68Z" fill="#808380" stroke="#808380" stroke-width="1.51"/><path d="M1471,405L1575,104L1336,93Z" fill="#3b3c3b" stroke="#3b3c3b" stroke-width="1.51"/><path d="M1707,298L1471,405L1770,564Z" fill="#252525" stroke="#252525" stroke-width="1.51"/><path d="M1346,-94L1292,-254L1115,-107Z" fill="#5b5c5a" stroke="#5b5c5a" stroke-width="1.51"/><path d="M1575,104L1521,-44L1336,93Z" fill="#464746" stroke="#464746" stroke-width="1.51"/><path d="M296,948L313,1168L496,1165Z" fill="#383838" stroke="#383838" stroke-width="1.51"/><path d="M496,1165L313,1168L781,1193Z" fill="#2c2d2c" stroke="#2c2d2c" stroke-width="1.51"/><path d="M56,1148L313,1168L296,948Z" fill="#404140" stroke="#404140" stroke-width="1.51"/><path d="M1479,-318L1292,-254L1346,-94Z" fill="#5e5e5c" stroke="#5e5e5c" stroke-width="1.51"/><path d="M145,784L71,902L296,948Z" fill="#4a4b4a" stroke="#4a4b4a" stroke-width="1.51"/><path d="M-45,734L71,902L145,784Z" fill="#535553" stroke="#535553" stroke-width="1.51"/><path d="M-45,734L145,784L113,598Z" fill="#565756" stroke="#565756" stroke-width="1.51"/><path d="M1575,104L1685,83L1521,-44Z" fill="#434543" stroke="#434543" stroke-width="1.51"/><path d="M1770,564L1471,405L1480,562Z" fill="#232323" stroke="#232323" stroke-width="1.51"/><path d="M1770,564L1480,562L1491,728Z" fill="#202020" stroke="#202020" stroke-width="1.51"/><path d="M1584,1128L1571,1002L1362,924Z" fill="#161616" stroke="#161616" stroke-width="1.51"/><path d="M541,-270L324,-235L353,-68Z" fill="#80817e" stroke="#80817e" stroke-width="1.51"/><path d="M-136,341L-64,525L137,370Z" fill="#676866" stroke="#676866" stroke-width="1.51"/><path d="M-64,525L-45,734L113,598Z" fill="#5d5e5c" stroke="#5d5e5c" stroke-width="1.51"/><path d="M1768,741L1770,564L1491,728Z" fill="#1c1c1c" stroke="#1c1c1c" stroke-width="1.51"/><path d="M1707,298L1685,83L1575,104Z" fill="#393a39" stroke="#393a39" stroke-width="1.51"/><path d="M1521,-44L1479,-318L1346,-94Z" fill="#565755" stroke="#565755" stroke-width="1.51"/><path d="M1763,-55L1685,83L1890,5Z" fill="#414341" stroke="#414341" stroke-width="1.51"/><path d="M324,-235L93,-104L353,-68Z" fill="#858784" stroke="#858784" stroke-width="1.51"/><path d="M128,87L-51,135L137,370Z" fill="#747774" stroke="#747774" stroke-width="1.51"/><path d="M1663,1004L1768,741L1491,728Z" fill="#191919" stroke="#191919" stroke-width="1.51"/><path d="M93,-104L-51,135L128,87Z" fill="#838682" stroke="#838682" stroke-width="1.51"/><path d="M1584,1128L1663,1004L1571,1002Z" fill="#131313" stroke="#131313" stroke-width="1.51"/><path d="M1571,1002L1663,1004L1491,728Z" fill="#171717" stroke="#171717" stroke-width="1.51"/><path d="M1268,1186L1584,1128L1362,924Z" fill="#161616" stroke="#161616" stroke-width="1.51"/><path d="M-51,135L-136,341L137,370Z" fill="#727471" stroke="#727471" stroke-width="1.51"/><path d="M-64,525L-226,549L-45,734Z" fill="#646462" stroke="#646462" stroke-width="1.51"/><path d="M93,-104L-56,-114L-51,135Z" fill="#8c8f8b" stroke="#8c8f8b" stroke-width="1.51"/><path d="M324,-235L90,-199L93,-104Z" fill="#8f918d" stroke="#8f918d" stroke-width="1.51"/><path d="M-142,-293L90,-199L324,-235Z" fill="#999b96" stroke="#999b96" stroke-width="1.51"/><path d="M1727,-207L1479,-318L1521,-44Z" fill="#565654" stroke="#565654" stroke-width="1.51"/><path d="M1292,-254L1479,-318L979,-310Z" fill="#666665" stroke="#666665" stroke-width="1.51"/><path d="M-109,990L56,1148L71,902Z" fill="#4e4f4e" stroke="#4e4f4e" stroke-width="1.51"/><path d="M71,902L56,1148L296,948Z" fill="#484948" stroke="#484948" stroke-width="1.51"/><path d="M1685,83L1763,-55L1521,-44Z" fill="#464746" stroke="#464746" stroke-width="1.51"/><path d="M1890,5L1685,83L1952,93Z" fill="#3d3e3d" stroke="#3d3e3d" stroke-width="1.51"/><path d="M-45,734L-109,990L71,902Z" fill="#555655" stroke="#555655" stroke-width="1.51"/><path d="M-136,341L-226,549L-64,525Z" fill="#6a6b69" stroke="#6a6b69" stroke-width="1.51"/><path d="M-326,362L-226,549L-136,341Z" fill="#737471" stroke="#737471" stroke-width="1.51"/><path d="M-225,139L-136,341L-51,135Z" fill="#80817e" stroke="#80817e" stroke-width="1.51"/><path d="M1949,610L1770,564L1937,696Z" fill="#1a1a1a" stroke="#1a1a1a" stroke-width="1.51"/><path d="M1949,610L1913,396L1770,564Z" fill="#1d1d1d" stroke="#1d1d1d" stroke-width="1.51"/><path d="M1770,564L1913,396L1707,298Z" fill="#222322" stroke="#222322" stroke-width="1.51"/><path d="M-256,935L-109,990L-45,734Z" fill="#5b5c5a" stroke="#5b5c5a" stroke-width="1.51"/><path d="M90,-199L-56,-114L93,-104Z" fill="#939591" stroke="#939591" stroke-width="1.51"/><path d="M1937,696L1770,564L1768,741Z" fill="#191919" stroke="#191919" stroke-width="1.51"/><path d="M1937,696L1768,741L1926,943Z" fill="#151615" stroke="#151615" stroke-width="1.51"/><path d="M1926,943L1768,741L1663,1004Z" fill="#131313" stroke="#131313" stroke-width="1.51"/><path d="M1584,1128L1727,1179L1663,1004Z" fill="#0f0f0f" stroke="#0f0f0f" stroke-width="1.51"/><path d="M1268,1186L1727,1179L1584,1128Z" fill="#101010" stroke="#101010" stroke-width="1.51"/><path d="M930,1208L1727,1179L1268,1186Z" fill="#151515" stroke="#151515" stroke-width="1.51"/><path d="M-56,-114L-225,139L-51,135Z" fill="#8c8e8b" stroke="#8c8e8b" stroke-width="1.51"/><path d="M1923,-300L1727,-207L1763,-55Z" fill="#4f504f" stroke="#4f504f" stroke-width="1.51"/><path d="M1763,-55L1727,-207L1521,-44Z" fill="#4d4e4c" stroke="#4d4e4c" stroke-width="1.51"/><path d="M1952,93L1685,83L1707,298Z" fill="#363736" stroke="#363736" stroke-width="1.51"/><path d="M1952,93L1707,298L1913,396Z" fill="#2d2d2d" stroke="#2d2d2d" stroke-width="1.51"/><path d="M1892,1106L1926,943L1663,1004Z" fill="#0d0d0d" stroke="#0d0d0d" stroke-width="1.51"/><path d="M1937,696L1926,943L1949,610Z" fill="#171717" stroke="#171717" stroke-width="1.51"/><path d="M-225,139L-326,362L-136,341Z" fill="#7f807d" stroke="#7f807d" stroke-width="1.51"/><path d="M-347,753L-256,935L-45,734Z" fill="#636361" stroke="#636361" stroke-width="1.51"/><path d="M1949,610L1952,93L1913,396Z" fill="#252625" stroke="#252625" stroke-width="1.51"/><path d="M-347,753L-45,734L-226,549Z" fill="#666765" stroke="#666765" stroke-width="1.51"/><path d="M-109,990L-141,1177L56,1148Z" fill="#4f504e" stroke="#4f504e" stroke-width="1.51"/><path d="M56,1148L-141,1177L313,1168Z" fill="#464645" stroke="#464645" stroke-width="1.51"/><path d="M313,1168L-141,1177L781,1193Z" fill="#373937" stroke="#373937" stroke-width="1.51"/><path d="M-330,1133L-141,1177L-109,990Z" fill="#565755" stroke="#565755" stroke-width="1.51"/><path d="M1727,1179L1892,1106L1663,1004Z" fill="#0b0b0b" stroke="#0b0b0b" stroke-width="1.51"/><path d="M-256,935L-330,1133L-109,990Z" fill="#5c5c5a" stroke="#5c5c5a" stroke-width="1.51"/><path d="M-326,362L-347,753L-226,549Z" fill="#70706e" stroke="#70706e" stroke-width="1.51"/><path d="M-56,-114L-351,1L-225,139Z" fill="#969894" stroke="#969894" stroke-width="1.51"/><path d="M-225,139L-351,1L-326,362Z" fill="#8d8f8c" stroke="#8d8f8c" stroke-width="1.51"/><path d="M90,-199L-142,-293L-56,-114Z" fill="#9d9e9b" stroke="#9d9e9b" stroke-width="1.51"/><path d="M541,-270L-142,-293L324,-235Z" fill="#91938f" stroke="#91938f" stroke-width="1.51"/><path d="M979,-310L-142,-293L541,-270Z" fill="#848683" stroke="#848683" stroke-width="1.51"/><path d="M1479,-318L-142,-293L979,-310Z" fill="#747572" stroke="#747572" stroke-width="1.51"/><path d="M-326,362L-351,1L-347,753Z" fill="#7d7e7b" stroke="#7d7e7b" stroke-width="1.51"/><path d="M-281,-203L-351,1L-56,-114Z" fill="#a1a29e" stroke="#a1a29e" stroke-width="1.51"/><path d="M-142,-293L-281,-203L-56,-114Z" fill="#a5a6a2" stroke="#a5a6a2" stroke-width="1.51"/><path d="M1952,93L1923,-300L1890,5Z" fill="#464746" stroke="#464746" stroke-width="1.51"/><path d="M1890,5L1923,-300L1763,-55Z" fill="#494a49" stroke="#494a49" stroke-width="1.51"/><path d="M1727,-207L1923,-300L1479,-318Z" fill="#595957" stroke="#595957" stroke-width="1.51"/><path d="M-347,753L-330,1133L-256,935Z" fill="#636362" stroke="#636362" stroke-width="1.51"/></svg>